<svg xmlns="http://www.w3.org/2000/svg" width="120.951" height="54.024" viewBox="0 0 120.951 54.024"><g id="图层_2" data-name="图层 2" transform="translate(0.017 -0.009)"><g id="图层_1" data-name="图层 1" transform="translate(0.034 0.061)"><path id="路径_171" fill="#133258" stroke="#152243" stroke-linejoin="round" stroke-width=".1" d="M.08,47.212,82.065.076a.149.149,0,0,1,.133,0l38.686,14.87v.032L.138,47.35a.075.075,0,1,1-.059-.139Z" data-name="路径 171" transform="translate(-0.034 -0.061)"/><path id="路径_172" fill="#133258" stroke="#152243" stroke-miterlimit="10" stroke-width=".1" d="M44.682,87.4,72.02,71.689a.149.149,0,0,1,.117,0l12.845,4.955L44.7,87.439S44.656,87.407,44.682,87.4Z" data-name="路径 172" transform="translate(-20.89 -33.521)"/><path id="路径_173" fill="#133258" stroke="#152243" stroke-miterlimit="10" stroke-width=".1" d="M115.338,79.793l26.639-15.3a.107.107,0,0,1,.091,0l12.574,4.832a.112.112,0,0,1,0,.213l-39.2,10.5a.133.133,0,0,1-.1-.245Z" data-name="路径 173" transform="translate(-53.872 -30.159)"/></g></g></svg>